<svg width="42" height="42" viewBox="0 0 42 42" fill="none" xmlns="http://www.w3.org/2000/svg">
    <rect width="42" height="18" fill="white" fill-opacity="0.33"/>
    <rect width="42" height="42" fill="url(#paint0_linear_0_1)"/>
    <path d="M7.25523 39.036C7.13923 39.036 7.01823 39.021 6.89223 38.991C6.76623 38.961 6.64723 38.92 6.53523 38.868V38.583C6.66723 38.655 6.78923 38.708 6.90123 38.742C7.01523 38.776 7.12723 38.793 7.23723 38.793C7.37523 38.793 7.48223 38.762 7.55823 38.7C7.63423 38.638 7.67223 38.553 7.67223 38.445C7.67223 38.371 7.65123 38.309 7.60923 38.259C7.56723 38.209 7.51423 38.169 7.45023 38.139C7.38623 38.109 7.30023 38.076 7.19223 38.04C7.06223 37.996 6.95723 37.954 6.87723 37.914C6.79923 37.874 6.73223 37.817 6.67623 37.743C6.62023 37.669 6.59223 37.573 6.59223 37.455C6.59223 37.279 6.65623 37.139 6.78423 37.035C6.91223 36.929 7.08423 36.876 7.30023 36.876C7.51023 36.876 7.70323 36.921 7.87923 37.011V37.287C7.68123 37.175 7.48823 37.119 7.30023 37.119C7.16223 37.119 7.05423 37.147 6.97623 37.203C6.89823 37.257 6.85923 37.332 6.85923 37.428C6.85923 37.494 6.87923 37.549 6.91923 37.593C6.95923 37.637 7.00823 37.673 7.06623 37.701C7.12423 37.727 7.20623 37.759 7.31223 37.797C7.44423 37.841 7.55223 37.884 7.63623 37.926C7.72023 37.968 7.79123 38.029 7.84923 38.109C7.90923 38.189 7.93923 38.292 7.93923 38.418C7.93923 38.542 7.91123 38.651 7.85523 38.745C7.79923 38.837 7.71923 38.909 7.61523 38.961C7.51123 39.011 7.39123 39.036 7.25523 39.036ZM9.46217 38.304H8.35217C8.36817 38.458 8.41917 38.581 8.50517 38.673C8.59317 38.763 8.71217 38.808 8.86217 38.808C8.95217 38.808 9.03917 38.79 9.12317 38.754C9.20917 38.716 9.29617 38.661 9.38417 38.589H9.39617V38.853C9.30817 38.917 9.22117 38.964 9.13517 38.994C9.04917 39.022 8.95717 39.036 8.85917 39.036C8.69917 39.036 8.56017 39.001 8.44217 38.931C8.32417 38.861 8.23317 38.764 8.16917 38.64C8.10717 38.514 8.07617 38.37 8.07617 38.208C8.07617 38.054 8.10417 37.916 8.16017 37.794C8.21817 37.67 8.30017 37.573 8.40617 37.503C8.51217 37.433 8.63617 37.398 8.77817 37.398C8.92217 37.398 9.04517 37.434 9.14717 37.506C9.25117 37.576 9.32917 37.673 9.38117 37.797C9.43517 37.921 9.46217 38.061 9.46217 38.217V38.304ZM8.78117 37.617C8.65717 37.617 8.55817 37.662 8.48417 37.752C8.41017 37.842 8.36617 37.958 8.35217 38.1H9.18917C9.17517 37.954 9.13417 37.837 9.06617 37.749C9.00017 37.661 8.90517 37.617 8.78117 37.617ZM10.931 38.304H9.821C9.837 38.458 9.888 38.581 9.974 38.673C10.062 38.763 10.181 38.808 10.331 38.808C10.421 38.808 10.508 38.79 10.592 38.754C10.678 38.716 10.765 38.661 10.853 38.589H10.865V38.853C10.777 38.917 10.69 38.964 10.604 38.994C10.518 39.022 10.426 39.036 10.328 39.036C10.168 39.036 10.029 39.001 9.911 38.931C9.793 38.861 9.702 38.764 9.638 38.64C9.576 38.514 9.545 38.37 9.545 38.208C9.545 38.054 9.573 37.916 9.629 37.794C9.687 37.67 9.769 37.573 9.875 37.503C9.981 37.433 10.105 37.398 10.247 37.398C10.391 37.398 10.514 37.434 10.616 37.506C10.72 37.576 10.798 37.673 10.85 37.797C10.904 37.921 10.931 38.061 10.931 38.217V38.304ZM10.25 37.617C10.126 37.617 10.027 37.662 9.953 37.752C9.879 37.842 9.835 37.958 9.821 38.1H10.658C10.644 37.954 10.603 37.837 10.535 37.749C10.469 37.661 10.374 37.617 10.25 37.617ZM12.2108 39L12.1718 38.793C12.0998 38.873 12.0188 38.933 11.9288 38.973C11.8388 39.013 11.7378 39.033 11.6258 39.033C11.4318 39.033 11.2828 38.958 11.1788 38.808C11.0748 38.658 11.0228 38.466 11.0228 38.232C11.0228 38.072 11.0508 37.929 11.1068 37.803C11.1648 37.677 11.2468 37.578 11.3528 37.506C11.4608 37.434 11.5888 37.398 11.7368 37.398C11.8088 37.398 11.8768 37.407 11.9408 37.425C12.0048 37.441 12.0728 37.465 12.1448 37.497V36.738H12.4088V38.652L12.4748 39H12.2108ZM11.6678 38.79C11.7638 38.79 11.8488 38.771 11.9228 38.733C11.9988 38.693 12.0728 38.635 12.1448 38.559V37.698C12.0168 37.654 11.8898 37.632 11.7638 37.632C11.6178 37.632 11.5048 37.688 11.4248 37.8C11.3468 37.91 11.3078 38.052 11.3078 38.226C11.3078 38.392 11.3358 38.528 11.3918 38.634C11.4498 38.738 11.5418 38.79 11.6678 38.79Z" fill="#1E1E1E"/>
    <rect x="1" y="35" width="4.0002" height="4.85763" rx="2.0001" fill="#3B3939"/>
    <circle cx="2.66661" cy="38.3805" r="0.476176" fill="#8EADFC"/>
    <circle cx="2.33332" cy="36.3333" r="0.333323" fill="#A4FC8E"/>
    <circle cx="2.33332" cy="37.5716" r="0.333323" fill="#A4FC8E"/>
    <rect x="2" y="36.3809" width="0.666647" height="1.14282" fill="#A4FC8E"/>
    <circle cx="3.33339" cy="36.476" r="0.476176" transform="rotate(-180 3.33339 36.476)" fill="#FC8E8E"/>
    <circle cx="3.66668" cy="38.5241" r="0.333323" transform="rotate(-180 3.66668 38.5241)" fill="#A4FC8E"/>
    <circle cx="3.66668" cy="37.2858" r="0.333323" transform="rotate(-180 3.66668 37.2858)" fill="#A4FC8E"/>
    <rect x="4" y="38.4766" width="0.666647" height="1.14282" transform="rotate(-180 4 38.4766)" fill="#A4FC8E"/>
    <defs>
        <linearGradient id="paint0_linear_0_1" x1="21" y1="0" x2="21" y2="42" gradientUnits="userSpaceOnUse">
            <stop stop-color="white" stop-opacity="0.68"/>
            <stop offset="1" stop-color="#A4FC8E"/>
        </linearGradient>
    </defs>
</svg>
